<svg width="154" height="72" viewBox="0 0 154 72" fill="none" xmlns="http://www.w3.org/2000/svg">
<path d="M43.0461 9.38431C42.4696 8.49035 41.6275 8.46468 40.6679 8.43542C40.5592 8.43211 40.4489 8.42875 40.3374 8.42407C40.2525 8.42011 40.1587 8.42164 40.0608 8.42323C39.6716 8.42956 39.2164 8.43697 38.987 8.10582C38.7211 7.72189 38.7464 6.97994 38.7672 6.36743C38.7738 6.17388 38.7799 5.99314 38.7763 5.84083C38.7389 4.41797 38.661 2.90653 38.1186 2.40126C37.7096 2.02216 36.486 2.07468 35.3576 2.12311C34.9918 2.13881 34.636 2.15409 34.3211 2.15409H10.3022C9.81861 2.15409 9.31168 2.11421 8.81359 2.07503C7.84305 1.99868 6.90609 1.92497 6.24073 2.15409C5.27511 2.48822 5.20973 4.244 5.14816 5.89734L5.14485 5.98629C5.09315 7.35119 4.75913 8.40439 3.65211 8.2983C2.36456 8.1769 1.08337 8.13862 0.501226 9.31869C-0.186298 10.7149 -0.0445035 12.1764 0.209472 14.7943C0.24575 15.1682 0.284318 15.5657 0.323085 15.9901H43.4175C43.4421 15.6799 43.4684 15.3738 43.4942 15.0726C43.696 12.7173 43.8718 10.6652 43.0461 9.38431Z" fill="white"/>
<path fill-rule="evenodd" clip-rule="evenodd" d="M3.67915 18.5864C4.3522 27.811 5.0179 37.0462 5.68362 46.2815L5.68402 46.2872C6.04548 51.3017 6.40695 56.3162 6.76959 61.3291H8.14463C8.23833 62.1137 8.34554 63.0825 8.45857 64.1038C8.68803 66.1771 8.94152 68.4675 9.15463 69.875H9.30671C10.7073 69.356 20.3898 65.1649 20.3941 48.4793C20.3923 48.4317 20.3939 48.3841 20.3988 48.3369H18.0067C17.8908 48.3358 17.7786 48.2966 17.6872 48.2254C17.5958 48.1543 17.5302 48.055 17.5007 47.9429C17.2676 47.3598 17.0796 46.7596 16.9385 46.1476C15.5312 46.9524 14.4137 48.1814 13.7452 49.6594C13.1106 48.1457 13.0275 46.4569 13.5105 44.8881C13.9935 43.3193 15.0118 41.9702 16.3875 41.0767C16.4052 36.2078 18.2054 31.5143 21.4473 27.8846L21.4979 27.8396C21.5921 27.7571 21.7128 27.7112 21.8379 27.7102C21.9102 27.7108 21.9817 27.7264 22.0477 27.7561C22.1145 27.7862 22.1743 27.83 22.2231 27.8846C25.5029 31.5192 27.2936 36.2579 27.238 41.1555C28.6394 42.0241 29.6784 43.3722 30.1623 44.9495C30.6461 46.5268 30.5419 48.2263 29.8691 49.7326C29.2041 48.2522 28.0857 47.0222 26.6758 46.2207C26.5896 46.8139 26.431 47.3941 26.2035 47.9485C26.1248 48.1849 25.9674 48.3369 25.81 48.3369H23.2589C23.2629 48.3652 23.2658 48.3936 23.2674 48.4221L23.2684 48.4287V48.4425C23.2693 48.467 23.2694 48.4916 23.2685 48.5163C23.3034 65.681 33.598 69.577 34.4657 69.875H34.7625C34.8383 68.523 35.085 66.6575 35.3255 64.8388C35.4912 63.5855 35.6539 62.3544 35.7558 61.3291H37.1468C37.592 55.0148 38.0499 48.7182 38.5078 42.4215L38.508 42.4181L38.5082 42.4163C39.0939 34.3621 39.6796 26.3076 40.2388 18.2157H3.76822C3.66324 18.2364 3.6704 18.4103 3.67915 18.5864ZM21.8379 27.7102L21.8352 27.7102H21.8408L21.8379 27.7102Z" fill="white"/>
<path d="M58.6509 10.2568C58.6509 7.97969 59.4255 6.21494 60.9748 4.96253C62.5523 3.68167 64.9186 3.04124 68.0735 3.04124C70.1581 3.04124 71.9327 3.24048 73.3975 3.63897V9.53096C71.8201 9.04708 70.2567 8.80513 68.7073 8.80513C67.1862 8.80513 66.2003 8.99015 65.7496 9.36018C65.2988 9.70174 65.0735 10.2141 65.0735 10.8972V25.2429C65.0735 26.6092 66.1298 27.2923 68.2425 27.2923C70.3834 27.2923 72.144 27.0788 73.5243 26.6519V32.4158C72.0032 32.8427 70.1581 33.0562 67.989 33.0562C64.834 33.0562 62.4819 32.43 60.9326 31.1776C59.4114 29.9252 58.6509 28.1604 58.6509 25.8834V10.2568Z" fill="white"/>
<path d="M85.8671 14.3129C85.8671 13.2312 85.2756 12.6904 84.0924 12.6904C82.9093 12.6904 82.3178 13.2312 82.3178 14.3129V26.1822C82.3178 27.2638 82.9093 27.8046 84.0924 27.8046C85.2756 27.8046 85.8671 27.2638 85.8671 26.1822V14.3129ZM76.0642 14.0994C76.0642 11.9361 76.7261 10.2568 78.0501 9.06131C79.4022 7.83737 81.4164 7.2254 84.0924 7.2254C86.7685 7.2254 88.7686 7.83737 90.0925 9.06131C91.4446 10.2568 92.1207 11.9361 92.1207 14.0994V26.3957C92.1207 28.5589 91.4446 30.2525 90.0925 31.4765C88.7686 32.6719 86.7685 33.2697 84.0924 33.2697C81.4164 33.2697 79.4022 32.6719 78.0501 31.4765C76.7261 30.2525 76.0642 28.5589 76.0642 26.3957V14.0994Z" fill="white"/>
<path d="M96.2276 7.35349C96.2276 2.54312 98.7347 0.137939 103.749 0.137939C104.397 0.137939 105.171 0.209099 106.073 0.351417V5.3041C105.622 5.24717 105.2 5.21871 104.805 5.21871C103.369 5.21871 102.65 5.90184 102.65 7.26809V7.65235H106.073V12.6904H102.65V32.8427H96.2276V12.6904H93.8191V7.65235H96.2276V7.35349Z" fill="white"/>
<path d="M108.689 7.35349C108.689 2.54312 111.196 0.137939 116.21 0.137939C116.858 0.137939 117.633 0.209099 118.534 0.351417V5.3041C118.084 5.24717 117.661 5.21871 117.267 5.21871C115.83 5.21871 115.112 5.90184 115.112 7.26809V7.65235H118.534V12.6904H115.112V32.8427H108.689V12.6904H106.281V7.65235H108.689V7.35349Z" fill="white"/>
<path d="M120.01 25.6699V14.0994C120.01 11.9361 120.672 10.2568 121.996 9.06131C123.32 7.83737 125.32 7.2254 127.996 7.2254C133.151 7.2254 135.729 9.51673 135.729 14.0994V22.7666H126.137V25.1575C126.137 26.0114 126.362 26.6234 126.813 26.9934C127.292 27.335 128.32 27.5058 129.897 27.5058C131.503 27.5058 133.25 27.2211 135.137 26.6519V32.2877C133.165 32.8285 131.052 33.0989 128.799 33.0989C122.94 33.0989 120.01 30.6226 120.01 25.6699ZM126.137 17.8566H129.855V14.1848C129.855 13.1032 129.236 12.5623 127.996 12.5623C126.757 12.5623 126.137 13.1032 126.137 14.1848V17.8566Z" fill="white"/>
<path d="M138.249 25.6699V14.0994C138.249 11.9361 138.911 10.2568 140.235 9.06131C141.559 7.83737 143.559 7.2254 146.235 7.2254C151.39 7.2254 153.967 9.51673 153.967 14.0994V22.7666H144.375V25.1575C144.375 26.0114 144.601 26.6234 145.051 26.9934C145.53 27.335 146.559 27.5058 148.136 27.5058C149.742 27.5058 151.488 27.2211 153.376 26.6519V32.2877C151.404 32.8285 149.291 33.0989 147.037 33.0989C141.178 33.0989 138.249 30.6226 138.249 25.6699ZM144.375 17.8566H148.094V14.1848C148.094 13.1032 147.474 12.5623 146.235 12.5623C144.995 12.5623 144.375 13.1032 144.375 14.1848V17.8566Z" fill="white"/>
<path d="M68.8211 48.5634C68.8211 46.4615 67.7232 45.4105 65.5275 45.4105H62.0258V64.5732H65.5275C67.7232 64.5732 68.8211 63.4988 68.8211 61.3502V48.5634ZM59.5642 43.2385H65.6661C67.5152 43.2385 68.9136 43.7173 69.8612 44.6749C70.8088 45.6324 71.2827 46.9169 71.2827 48.5284V61.4203C71.2827 63.0785 70.8204 64.3863 69.8959 65.3439C68.9713 66.3014 67.5845 66.7802 65.7355 66.7802H59.5642V43.2385Z" fill="white"/>
<path d="M75.3336 61.7005V51.9616C75.3336 50.3034 75.7959 48.9838 76.7204 48.0029C77.6681 46.9987 79.0896 46.4965 80.9849 46.4965C82.8801 46.4965 84.2785 46.9987 85.1799 48.0029C86.1045 48.9838 86.5667 50.3034 86.5667 51.9616V58.0572H77.7605V61.5954C77.7605 62.6464 78.0841 63.4288 78.7313 63.9426C79.3785 64.4564 80.3839 64.7133 81.7476 64.7133C83.1113 64.7133 84.5212 64.5031 85.9773 64.0827V66.3948C84.8217 66.7685 83.4464 66.9554 81.8516 66.9554C77.5063 66.9554 75.3336 65.2038 75.3336 61.7005ZM77.7605 55.9903H84.2092V51.9616C84.2092 49.7662 83.1344 48.6685 80.9849 48.6685C78.8353 48.6685 77.7605 49.7662 77.7605 51.9616V55.9903Z" fill="white"/>
<path d="M90.7808 41.557H93.2423V66.7802H90.7808V41.557Z" fill="white"/>
<path d="M99.2397 44.6048C98.2458 44.6048 97.7489 44.0676 97.7489 42.9933C97.7489 41.919 98.2458 41.3818 99.2397 41.3818C100.257 41.3818 100.765 41.919 100.765 42.9933C100.765 44.0676 100.257 44.6048 99.2397 44.6048ZM98.0262 46.987H100.488V66.7802H98.0262V46.987Z" fill="white"/>
<path d="M113.176 46.8469H115.673L111.304 66.7802H107.837L103.469 46.8469H106L107.907 55.9903L109.605 65.0286C110.299 61.1517 111.489 55.0911 113.176 46.8469Z" fill="white"/>
<path d="M118.299 61.7005V51.9616C118.299 50.3034 118.761 48.9838 119.685 48.0029C120.633 46.9987 122.055 46.4965 123.95 46.4965C125.845 46.4965 127.244 46.9987 128.145 48.0029C129.07 48.9838 129.532 50.3034 129.532 51.9616V58.0572H120.726V61.5954C120.726 62.6464 121.049 63.4288 121.696 63.9426C122.344 64.4564 123.349 64.7133 124.713 64.7133C126.076 64.7133 127.486 64.5031 128.942 64.0827V66.3948C127.787 66.7685 126.411 66.9554 124.817 66.9554C120.471 66.9554 118.299 65.2038 118.299 61.7005ZM120.726 55.9903H127.174V51.9616C127.174 49.7662 126.099 48.6685 123.95 48.6685C121.8 48.6685 120.726 49.7662 120.726 51.9616V55.9903Z" fill="white"/>
<path d="M140.125 46.7418H140.992V49.124H139.813C138.981 49.124 138.23 49.3458 137.56 49.7896C137.351 49.9297 136.901 50.245 136.207 50.7354V66.7802H133.746V46.8469H136.103V48.3532C136.173 48.3065 136.346 48.1781 136.623 47.9679C136.924 47.7577 137.097 47.6409 137.143 47.6176C137.213 47.5709 137.363 47.4774 137.594 47.3373C137.848 47.1972 138.033 47.1154 138.149 47.0921C138.288 47.0454 138.472 46.987 138.704 46.9169C139.05 46.8001 139.524 46.7418 140.125 46.7418Z" fill="white"/>
<path d="M151.539 46.8469H154L148.592 72H146.234L147.309 66.7802H146.095L141.796 46.8469H144.293L146.373 56.761L147.898 65.0286C148.36 62.2727 148.869 59.5169 149.424 56.761L151.539 46.8469Z" fill="white"/>
</svg>
