<svg width="270" height="161" viewBox="0 0 270 161" fill="none" xmlns="http://www.w3.org/2000/svg">
<path d="M102.88 41.9504C98.0743 42.2369 93.2669 42.4625 88.4583 42.6271C83.6499 42.805 78.8403 42.9269 74.0306 43.0381C69.2204 43.1313 64.41 43.2124 59.5984 43.2379C54.7871 43.2768 49.9745 43.2538 45.1606 43.1689C49.9667 42.8814 54.774 42.6553 59.5827 42.4908C64.3911 42.3131 69.2006 42.1912 74.0105 42.0812C78.8206 41.9892 83.631 41.9081 88.4426 41.8828C93.2539 41.8444 98.0665 41.8669 102.88 41.9504Z" fill="#EBC136"/>
<path d="M64.1719 56.4291C59.3658 56.7156 54.5584 56.9412 49.7498 57.1059C44.9414 57.2839 40.1318 57.4058 35.3221 57.5168C30.5119 57.61 25.7015 57.6913 20.8899 57.7166C16.0787 57.7557 11.266 57.7327 6.45215 57.6478C11.2582 57.3601 16.0656 57.134 20.8742 56.9695C25.6826 56.7918 30.4921 56.6699 35.302 56.56C40.1121 56.468 44.9225 56.3868 49.7341 56.3617C54.5454 56.3231 59.358 56.3456 64.1719 56.4291Z" fill="#EBC136"/>
<path d="M80.7163 72.6327C75.9102 72.9192 71.1028 73.1449 66.2942 73.3096C61.4859 73.4875 56.6763 73.6094 51.8665 73.7205C47.0564 73.8136 42.246 73.8949 37.4344 73.9202C32.6231 73.9593 27.8105 73.9363 22.9966 73.8514C27.8027 73.5637 32.61 73.3376 37.4187 73.1732C42.227 72.9955 47.0366 72.8735 51.8464 72.7636C56.6566 72.6717 61.467 72.5904 66.2786 72.5653C71.0898 72.5267 75.9024 72.5492 80.7163 72.6327Z" fill="#EBC136"/>
<path d="M255.552 154H34.4477C34.329 154 34.2151 153.947 34.1311 153.854C34.0472 153.76 34 153.633 34 153.5C34 153.367 34.0472 153.24 34.1311 153.146C34.2151 153.053 34.329 153 34.4477 153H255.552C255.671 153 255.785 153.053 255.869 153.146C255.953 153.24 256 153.367 256 153.5C256 153.633 255.953 153.76 255.869 153.854C255.785 153.947 255.671 154 255.552 154Z" fill="#8C8686"/>
<path d="M136.203 8.86738C137.655 8.63338 139.141 8.74814 140.539 9.20222C141.195 9.4287 143.592 10.2569 144.777 12.5133C145.226 13.3702 145.335 14.4047 145.553 16.4737C145.689 17.7661 146.195 18.6883 146.207 20.2658C146.192 21.5442 145.994 22.8138 145.618 24.0355C145.055 25.9476 145.437 27.0279 145.151 27.3868C143.999 28.8335 140.455 27.7364 140.418 29.6116C140.395 30.7695 142.389 35.7503 142.361 37.1068C142.295 40.2678 136.997 37.0056 133.804 32.3188C133.659 32.1061 131.493 30.8611 131.701 28.8117C131.812 27.7169 132.695 22.5768 132.601 21.9154C132.258 19.5247 131.051 19.2432 130.077 16.3582C129.814 15.634 129.74 14.8541 129.863 14.0933C129.987 13.3325 130.304 12.6162 130.783 12.0131C132.166 10.3604 134.084 9.24699 136.203 8.86738Z" fill="#D19E8A"/>
<path d="M138.091 27.1895C139.685 28.2912 142.739 28.2171 142.739 28.2171L142.749 28.2883C141.563 28.4431 140.439 28.56 140.418 29.6116C140.474 30.2 140.599 30.7797 140.79 31.339C138.704 30.1622 138.091 27.1895 138.091 27.1895Z" fill="#B5806D"/>
<path fill-rule="evenodd" clip-rule="evenodd" d="M133.816 17.8808C133.998 17.8038 134.201 17.7917 134.39 17.8466C134.239 17.9329 134.096 18.0323 133.962 18.1437C133.903 18.1933 133.844 18.2445 133.787 18.2971C133.897 18.3879 133.991 18.4965 134.065 18.6188C134.177 18.7952 134.252 18.9919 134.287 19.1976C134.327 19.4009 134.325 19.6107 134.278 19.8128C134.232 20.015 134.143 20.205 134.018 20.3701C134.002 19.9993 133.965 19.6298 133.906 19.2635C133.848 18.968 133.777 18.6754 133.693 18.3866C133.664 18.4151 133.635 18.444 133.607 18.4733C133.539 18.536 133.476 18.605 133.412 18.6751C133.364 18.728 133.315 18.7815 133.263 18.8335C133.143 18.9688 133.016 19.0967 132.88 19.2166C132.887 19.0268 132.931 18.8401 133.011 18.6677C133.09 18.4943 133.199 18.3361 133.333 18.1999C133.47 18.0613 133.635 17.9526 133.816 17.8808Z" fill="#B5806D"/>
<path d="M137.005 22.597C137.005 22.597 136.172 19.1285 136.311 18.1322C136.504 16.744 136.601 16.05 136.43 15.4872C136.157 14.5863 136.595 14.465 137.152 13.4896C137.675 12.5741 139.325 13.2974 139.734 13.1421C140.881 12.7061 140.835 12.221 141.613 12.1659C142.41 12.1094 142.994 11.8932 143.514 12.4045C144.045 12.9264 145.022 14.3174 145.258 14.0726C145.754 13.3993 146.055 12.6021 146.128 11.7687C146.127 10.9477 145.926 10.1395 145.543 9.41386C145.35 8.99442 144.633 7.43352 143.165 7.02773C142.319 6.79397 142.161 7.2023 140.336 7.32609C138.444 7.45454 138.382 7.03114 137.393 7.3218C136.298 7.64361 136.344 8.17097 134.477 9.21294C133.858 9.54741 133.222 9.84796 132.57 10.1133C130.224 11.1318 129.915 10.9748 129.378 11.5035C128.22 12.6432 128.427 14.5841 128.477 15.0529C128.618 16.3732 129.137 16.7659 130.275 18.8731C132.078 22.2102 131.734 23.6219 132.389 24.0864C132.71 24.3142 134.383 23.1016 134.37 22.5113C134.353 21.7374 133.794 21.4979 133.129 20.3849C132.664 19.607 131.997 18.4902 132.367 17.4694C132.591 16.8524 132.848 17.0185 133.485 17.0721C134.349 17.1449 134.784 18.3461 135.138 19.2274C135.393 19.8652 135.507 20.551 135.471 21.2372C135.392 22.7681 137.308 23.2036 137.005 22.597Z" fill="#2E2C33"/>
<path d="M145.078 19.1117C145.346 19.1094 145.561 18.837 145.558 18.5032C145.555 18.1695 145.336 17.9008 145.068 17.9031C144.8 17.9054 144.585 18.1778 144.588 18.5115C144.591 18.8453 144.81 19.114 145.078 19.1117Z" fill="#0A0709"/>
<path d="M140.703 19.1497C140.971 19.1474 141.186 18.875 141.183 18.5412C141.18 18.2075 140.961 17.9387 140.693 17.941C140.425 17.9433 140.21 18.2158 140.213 18.5495C140.216 18.8833 140.435 19.152 140.703 19.1497Z" fill="#0A0709"/>
<path d="M142.756 17.4458C142.816 17.4453 142.873 17.4275 142.922 17.3947C143.35 17.0935 143.859 16.9288 144.381 16.9223C144.904 16.9157 145.417 17.0676 145.852 17.3579C145.917 17.406 145.999 17.4261 146.079 17.4139C146.159 17.4018 146.231 17.3583 146.279 17.293C146.327 17.2277 146.348 17.146 146.336 17.0657C146.324 16.9854 146.281 16.9131 146.216 16.8646C145.677 16.5056 145.044 16.3155 144.397 16.3188C143.75 16.322 143.119 16.5185 142.584 16.883C142.529 16.9196 142.487 16.973 142.465 17.0353C142.443 17.0976 142.441 17.1655 142.46 17.2288C142.48 17.2921 142.519 17.3474 142.572 17.3865C142.626 17.4256 142.69 17.4464 142.756 17.4458Z" fill="#494752"/>
<path d="M138.221 17.4846C138.28 17.4841 138.338 17.4663 138.387 17.4335C138.816 17.1355 139.324 16.9727 139.846 16.966C140.368 16.9593 140.88 17.1089 141.317 17.3958C141.349 17.4197 141.386 17.4371 141.424 17.4469C141.463 17.4567 141.504 17.4587 141.544 17.4528C141.584 17.4468 141.622 17.4332 141.656 17.4125C141.691 17.3918 141.721 17.3645 141.745 17.3322C141.769 17.2998 141.786 17.2631 141.796 17.2241C141.805 17.185 141.807 17.1444 141.802 17.1046C141.796 17.0648 141.782 17.0266 141.761 16.992C141.741 16.9575 141.713 16.9274 141.681 16.9034C141.143 16.5444 140.509 16.3543 139.862 16.3576C139.215 16.3609 138.584 16.5573 138.049 16.9218C137.994 16.9584 137.952 17.0118 137.93 17.0741C137.908 17.1364 137.906 17.2043 137.925 17.2676C137.945 17.3309 137.984 17.3862 138.037 17.4253C138.091 17.4644 138.155 17.4852 138.221 17.4846Z" fill="#494752"/>
<path d="M142.34 17.5741C142.181 18.0848 142.206 18.6351 142.409 19.1296C142.586 19.6269 142.84 20.093 143.163 20.5106L143.418 20.7973C143.45 20.8256 143.475 20.8599 143.493 20.8981C143.511 20.9363 143.521 20.9777 143.522 21.0199C143.503 21.2268 143.404 21.4179 143.245 21.5517C142.855 21.8452 142.369 21.9812 141.883 21.9328C142.135 22.0338 142.408 22.0729 142.679 22.047C142.949 22.0211 143.21 21.9309 143.438 21.7838C143.565 21.6972 143.67 21.584 143.748 21.4522C143.826 21.3204 143.874 21.1731 143.888 21.0207C143.89 20.8477 143.825 20.6806 143.708 20.5536L143.461 20.2641C143.158 19.873 142.898 19.4513 142.684 19.0059C142.45 18.5656 142.331 18.0728 142.34 17.5741Z" fill="#B5806D"/>
<path d="M140.894 24.0771C140.894 24.0771 142.82 25.8459 144.514 24.0461L140.894 24.0771Z" fill="#9D6D5C"/>
<path d="M141.323 33.0702C141.323 33.0702 144.709 42.8731 131.764 28.3109L126.139 32.988C124.974 33.974 124.17 35.321 123.855 36.8159C123.579 38.9367 123.304 41.0575 123.028 43.1783C121.98 51.2412 121.973 59.4055 123.006 67.4703C123.285 69.6453 123.564 71.8203 123.842 73.9954L148.028 77.3208C146.667 72.6566 145.864 67.8472 145.634 62.9935C145.362 57.1838 146.081 54.7119 145.806 49.8931C145.429 44.0453 143.905 38.329 141.323 33.0702Z" fill="#FFBA55"/>
<path d="M144.851 72.189C144.413 71.9376 143.967 71.7096 143.527 71.4704L142.236 70.7095C141.395 70.1796 140.591 69.5924 139.83 68.9521C139.069 68.3186 138.38 67.6023 137.776 66.8163C137.478 66.4201 137.213 66.0003 136.983 65.5611C136.738 65.1253 136.551 64.6589 136.429 64.1741C136.568 65.1868 136.946 66.1516 137.533 66.988C138.105 67.834 138.794 68.5944 139.58 69.2466C140.356 69.9011 141.196 70.4768 142.086 70.9653L143.443 71.6393C143.914 71.8229 144.378 72.0177 144.851 72.189Z" fill="#E6952A"/>
<path d="M132.518 39.2379C132.518 39.2379 133.614 36.6236 147.949 57.242L142.502 64.3213C142.502 64.3213 134.594 57.8042 131.011 52.178" fill="#FFBA55"/>
<path d="M132.518 39.2379C132.587 39.1201 132.741 39.1199 132.861 39.132C132.986 39.1556 133.109 39.1909 133.227 39.2374C133.456 39.3469 133.675 39.4749 133.883 39.6201C134.094 39.7582 134.296 39.9108 134.487 40.0768C134.679 40.2408 134.885 40.391 135.064 40.5676C135.812 41.2454 136.519 41.9655 137.205 42.7027C138.576 44.1814 139.838 45.7497 141.104 47.3138C142.361 48.8853 143.574 50.49 144.762 52.112C145.97 53.7206 147.103 55.3815 148.274 57.0154L148.443 57.2508L145.533 61.0186L142.555 64.8396L142.273 64.5997C141.199 63.6853 140.162 62.7473 139.151 61.7732C138.14 60.8011 137.147 59.8111 136.185 58.7901C135.223 57.7697 134.291 56.7201 133.421 55.6191C132.541 54.528 131.736 53.3784 131.011 52.178C131.825 53.3124 132.699 54.402 133.63 55.4423C134.563 56.4784 135.538 57.4742 136.521 58.4609C137.511 59.441 138.533 60.3894 139.57 61.3188C140.612 62.2411 141.661 63.1647 142.731 64.0426L142.217 64.101L144.919 60.5446L147.636 57L147.624 57.4684C146.471 55.8281 145.333 54.1748 144.162 52.548C143.007 50.9083 141.817 49.2958 140.632 47.6787C139.43 46.0762 138.218 44.4777 136.923 42.9526C136.284 42.1823 135.624 41.429 134.924 40.7164C134.755 40.5302 134.563 40.3729 134.383 40.1995C134.204 40.0261 134.014 39.864 133.815 39.7142C133.623 39.5562 133.418 39.4143 133.202 39.2898C133.091 39.2363 132.976 39.1931 132.857 39.1606C132.742 39.1407 132.595 39.1271 132.518 39.2379Z" fill="#E6952A"/>
<path d="M169.704 112.137L170.999 118.704L183.69 120.751L166.72 125.911L163.147 114.131L169.704 112.137Z" fill="#D19E8A"/>
<path d="M185.569 120.812L185.558 120.773C185.467 120.475 185.296 120.208 185.063 120.002C184.83 119.796 184.544 119.658 184.238 119.605L171.012 117.304C170.882 117.281 170.749 117.305 170.635 117.371C170.522 117.437 170.435 117.54 170.39 117.664L169.054 121.334C169.006 121.464 168.912 121.572 168.79 121.637C168.668 121.702 168.526 121.72 168.392 121.686L165.28 120.905C165.184 120.881 165.084 120.883 164.988 120.91C164.893 120.938 164.807 120.99 164.739 121.062C164.671 121.134 164.622 121.223 164.6 121.319C164.577 121.416 164.58 121.517 164.609 121.612L166.156 126.715C166.199 126.858 166.297 126.977 166.428 127.047C166.559 127.117 166.712 127.132 166.855 127.089L185.196 121.511C185.338 121.468 185.457 121.37 185.527 121.239C185.597 121.108 185.612 120.954 185.569 120.812Z" fill="#251D1B"/>
<path d="M123.38 69.2183C123.38 69.2183 119.515 86.3722 126.901 86.0647H154.979L162.544 116.637C162.544 116.637 165.452 117.825 167.977 117.295C169.711 116.932 171.205 115.275 172.244 114.428C172.244 114.428 166.718 70.5985 156.264 69.2675C143.224 67.6072 123.38 69.2183 123.38 69.2183Z" fill="#808B49"/>
<path d="M154.979 86.0647C155.626 85.251 156.205 84.3846 156.708 83.4747C156.943 83.0253 157.184 82.5764 157.395 82.1026C157.618 81.6327 157.808 81.1457 158.065 80.6461C158.136 81.1971 158.109 81.7565 157.986 82.2981C157.871 82.8449 157.676 83.3715 157.406 83.8602C157.137 84.3518 156.793 84.7984 156.386 85.1839C155.991 85.5817 155.509 85.8831 154.979 86.0647Z" fill="#5E7C24"/>
<path d="M175.327 69.1414C179.941 69.1414 179.949 61.9592 175.327 61.9592C170.712 61.9592 170.704 69.1414 175.327 69.1414Z" fill="#6F56A5"/>
<path d="M147.788 57.6428L169.359 60.5227C169.359 60.5227 178.169 57.2489 179.964 61.8918C180.201 62.5331 180.208 63.237 179.983 63.8828C179.445 65.4979 178.173 68.6868 177.241 66.0261L176.283 63.2902C176.283 63.2902 172.977 65.5832 169.782 64.4461C168.628 64.0353 153.179 67.0484 144.851 65.0141L142.502 64.3213L147.788 57.6428Z" fill="#D19E8A"/>
<path d="M104.41 153.328C114.731 153.328 123.099 144.926 123.099 134.562C123.099 124.198 114.731 115.796 104.41 115.796C94.0882 115.796 85.7209 124.198 85.7209 134.562C85.7209 144.926 94.0882 153.328 104.41 153.328Z" fill="#1E1D22"/>
<path fill-rule="evenodd" clip-rule="evenodd" d="M114.109 134.562C114.109 139.941 109.767 144.301 104.41 144.301C99.053 144.301 94.7104 139.941 94.7104 134.562C94.7104 129.183 99.053 124.823 104.41 124.823C109.767 124.823 114.109 129.183 114.109 134.562ZM104.041 137.002C105.87 137.002 105.873 134.155 104.041 134.155C102.212 134.155 102.209 137.002 104.041 137.002Z" fill="#848384"/>
<path d="M205.811 153.328C216.133 153.328 224.5 144.926 224.5 134.562C224.5 124.198 216.133 115.796 205.811 115.796C195.489 115.796 187.122 124.198 187.122 134.562C187.122 144.926 195.489 153.328 205.811 153.328Z" fill="#1E1D22"/>
<path fill-rule="evenodd" clip-rule="evenodd" d="M215.51 134.562C215.51 139.941 211.168 144.301 205.811 144.301C200.454 144.301 196.112 139.941 196.112 134.562C196.112 129.183 200.454 124.823 205.811 124.823C211.168 124.823 215.51 129.183 215.51 134.562ZM205.442 138.451C209.134 138.451 209.14 132.706 205.442 132.706C201.75 132.706 201.744 138.451 205.442 138.451Z" fill="#848384"/>
<path d="M178.168 59.8046L190.812 53.7654L191.46 67.6035L179.303 63.6634L178.168 59.8046Z" fill="#8E6CD8"/>
<path d="M191.394 67.6064C192.579 67.5507 193.395 64.4077 193.216 60.5864C193.037 56.7651 191.931 53.7125 190.746 53.7682C189.561 53.8239 188.745 56.9668 188.924 60.7881C189.103 64.6095 190.209 67.6621 191.394 67.6064Z" fill="#FFBA55"/>
<path d="M190.746 53.7682C190.598 53.8103 190.461 53.8845 190.345 53.9854C190.229 54.0863 190.136 54.2115 190.074 54.3522C189.927 54.6213 189.814 54.9073 189.737 55.204C189.576 55.8028 189.465 56.4139 189.404 57.031C189.178 59.5195 189.296 62.0274 189.755 64.4835C189.873 65.0922 190.041 65.6901 190.257 66.2711C190.361 66.5592 190.5 66.8334 190.671 67.0876C190.747 67.2218 190.85 67.3378 190.975 67.4275C191.1 67.5171 191.243 67.5782 191.394 67.6064C191.227 67.6175 191.06 67.5895 190.906 67.5248C190.752 67.4601 190.614 67.3604 190.505 67.2334C190.27 66.9986 190.068 66.7328 189.905 66.4434C189.587 65.8715 189.334 65.2653 189.152 64.6364C188.44 62.1318 188.316 59.4959 188.792 56.9356C188.915 56.2925 189.11 55.6653 189.373 55.066C189.508 54.7626 189.684 54.479 189.896 54.2232C189.993 54.0867 190.12 53.9745 190.267 53.8955C190.415 53.8166 190.579 53.7729 190.746 53.7682Z" fill="#E6952A"/>
<path d="M229.704 132.424C229.704 132.424 212.672 123.872 182.391 135.274H128.303C128.303 135.274 110.324 146.676 80.0433 138.125C80.0433 138.125 76.2582 131.474 85.721 117.221C85.721 117.221 91.3986 101.069 95.1837 98.218L147.361 98.2454C147.361 98.2454 146.144 124.624 165.069 126.524C183.995 128.425 182.102 110.372 182.102 110.372L179.597 70.4176C179.554 67.8838 179.381 65.3539 179.08 62.8378C178.736 59.9038 177.742 60.3117 178.925 60.9056C180.817 61.8558 199.424 82.0652 203.209 110.57C203.209 110.57 224.973 107.72 229.704 132.424Z" fill="#8E6CD8"/>
<path d="M93.112 98.9701H144.748C147.884 98.9701 150.426 96.0809 150.426 92.5174C150.426 88.9539 147.884 86.0647 144.748 86.0647H93.112C89.9765 86.0647 87.4343 88.9539 87.4343 92.5174C87.4343 96.0809 89.9765 98.9701 93.112 98.9701Z" fill="#6F56A5"/>
<path d="M128.303 135.274C129.983 132.702 131.295 129.907 132.202 126.97C133.085 124.075 133.462 120.984 132.774 118.12C132.048 115.258 130.297 112.764 127.853 111.111C127.704 111.004 127.564 110.885 127.406 110.787L126.933 110.496C126.616 110.305 126.313 110.093 125.984 109.918C125.314 109.59 124.68 109.207 123.969 108.938L122.927 108.498C122.591 108.359 122.247 108.236 121.899 108.131C121.193 107.911 120.466 107.73 119.734 107.575C116.784 106.957 113.763 106.752 110.757 106.967C109.249 107.066 107.748 107.256 106.263 107.535C104.775 107.816 103.309 108.203 101.852 108.628C96.0209 110.541 90.5637 113.448 85.7209 117.221L87.4463 115.672L89.2523 114.212L91.1221 112.828C91.7669 112.398 92.4047 111.952 93.0588 111.532C95.7044 109.87 98.5218 108.5 101.462 107.445C104.428 106.402 107.514 105.735 110.646 105.459C113.797 105.196 116.969 105.383 120.067 106.015C120.842 106.185 121.611 106.383 122.375 106.628C122.752 106.749 123.15 106.886 123.52 107.048L124.605 107.516C125.336 107.801 126.029 108.218 126.738 108.576C127.088 108.767 127.419 108.998 127.759 109.208C128.104 109.414 128.434 109.645 128.747 109.898C131.427 111.797 133.297 114.637 133.984 117.853C134.291 119.433 134.333 121.052 134.11 122.645C133.891 124.209 133.497 125.744 132.937 127.22C132.375 128.677 131.702 130.087 130.922 131.439C130.158 132.789 129.282 134.072 128.303 135.274Z" fill="#6F56A5"/>
<path d="M122.058 114.428C121.198 115.442 120.231 116.358 119.173 117.162C118.122 117.979 117.016 118.723 115.863 119.389C115.299 119.747 114.701 120.037 114.111 120.345C113.524 120.663 112.913 120.926 112.308 121.204C112.006 121.345 111.7 121.475 111.395 121.607L110.462 121.962C109.837 122.189 109.222 122.447 108.589 122.648C106.062 123.47 103.469 124.069 100.839 124.44C99.5332 124.656 98.2042 124.71 96.8917 124.827C95.5699 124.868 94.2479 124.87 92.9316 124.823C94.2227 124.516 95.5139 124.307 96.7946 124.049L98.7074 123.634C99.3437 123.497 99.9842 123.39 100.611 123.215C101.241 123.054 101.871 122.898 102.503 122.757C103.138 122.628 103.752 122.415 104.377 122.248C104.996 122.062 105.632 121.935 106.243 121.724L108.088 121.133C108.708 120.95 109.307 120.711 109.918 120.502L110.829 120.176C111.127 120.053 111.424 119.928 111.726 119.814C112.938 119.367 114.108 118.821 115.286 118.29C115.868 118.01 116.457 117.739 117.027 117.434L117.893 116.99L118.74 116.514C119.886 115.884 120.994 115.187 122.058 114.428Z" fill="#6F56A5"/>
<path d="M124.271 120.695C123.412 121.709 122.444 122.626 121.386 123.43C120.335 124.247 119.23 124.991 118.077 125.656C117.513 126.014 116.915 126.304 116.324 126.612C115.737 126.93 115.127 127.193 114.522 127.471C114.22 127.612 113.914 127.742 113.608 127.875L112.676 128.229C112.051 128.456 111.435 128.715 110.802 128.916C108.276 129.737 105.683 130.337 103.053 130.707C101.747 130.923 100.418 130.977 99.1051 131.095C97.7832 131.136 96.4612 131.137 95.145 131.09C96.4361 130.784 97.7272 130.574 99.0079 130.317L100.921 129.902C101.557 129.764 102.198 129.657 102.825 129.482C103.454 129.321 104.084 129.166 104.716 129.025C105.351 128.895 105.965 128.683 106.59 128.515C107.209 128.329 107.846 128.203 108.457 127.991L110.302 127.401C110.921 127.217 111.52 126.978 112.131 126.77L113.043 126.443C113.341 126.321 113.638 126.196 113.939 126.081C115.152 125.634 116.321 125.089 117.5 124.558C118.081 124.278 118.67 124.006 119.24 123.701L120.106 123.258L120.954 122.781C122.099 122.151 123.207 121.455 124.271 120.695Z" fill="#6F56A5"/>
<path d="M185.627 68.4111C185.037 67.8923 184.495 67.3471 183.961 66.797L182.381 65.1477C181.862 64.5959 181.334 64.0573 180.789 63.5464C180.519 63.2913 180.233 63.0532 179.933 62.8332C179.641 62.5992 179.294 62.4425 178.925 62.3775C179.323 62.2805 179.742 62.3189 180.116 62.4865C180.488 62.6366 180.843 62.8279 181.173 63.0567C181.82 63.5059 182.418 64.022 182.957 64.5964C183.492 65.1621 183.987 65.7647 184.438 66.3998C184.897 67.0307 185.296 67.7042 185.627 68.4111Z" fill="#6F56A5"/>
<path d="M203.209 110.57C200.416 111.296 197.751 112.446 195.306 113.98C194.106 114.734 192.97 115.585 191.908 116.524C190.842 117.448 189.865 118.472 188.993 119.582C188.099 120.677 187.303 121.849 186.614 123.083C186.424 123.383 186.269 123.702 186.104 124.016C185.945 124.334 185.764 124.641 185.623 124.968C185.34 125.62 185.023 126.26 184.773 126.93C183.736 129.636 182.939 132.428 182.391 135.274C182.32 132.309 182.728 129.351 183.6 126.516C184.466 123.63 185.875 120.936 187.753 118.58C190.606 115.051 194.478 112.491 198.84 111.251C200.261 110.838 201.729 110.609 203.209 110.57Z" fill="#6F56A5"/>
<path d="M114.141 84.5238H95.4015L91.1751 80.0736C91.1121 80.0043 91.0348 79.9496 90.9487 79.913C90.8626 79.8764 90.7696 79.8589 90.6761 79.8616C90.5825 79.8643 90.4907 79.8872 90.4068 79.9288C90.323 79.9703 90.2491 80.0295 90.1901 80.1023C90.0621 80.257 89.9942 80.4528 89.999 80.6537C90.0037 80.8546 90.0808 81.047 90.216 81.1955L93.3767 84.5238H88.3347V81.0117C88.3447 80.914 88.3342 80.8153 88.3037 80.722C88.2733 80.6287 88.2236 80.5428 88.1579 80.4699C88.0923 80.397 88.012 80.3388 87.9224 80.2989C87.8329 80.259 87.7359 80.2384 87.6379 80.2384C87.5399 80.2384 87.4429 80.259 87.3533 80.2989C87.2638 80.3388 87.1835 80.397 87.1178 80.4699C87.0522 80.5428 87.0025 80.6287 86.9721 80.722C86.9416 80.8153 86.9311 80.914 86.9411 81.0117V84.5239H83.4988C83.3077 84.5435 83.1307 84.6334 83.002 84.7762C82.8733 84.919 82.802 85.1046 82.802 85.297C82.802 85.4893 82.8733 85.6749 83.002 85.8177C83.1307 85.9605 83.3077 86.0504 83.4988 86.0701H86.9411V89.5822C86.9311 89.6799 86.9416 89.7786 86.9721 89.8719C87.0025 89.9652 87.0522 90.0511 87.1178 90.124C87.1835 90.1969 87.2638 90.2551 87.3533 90.295C87.4429 90.3349 87.5399 90.3555 87.6379 90.3555C87.7359 90.3555 87.8329 90.3349 87.9224 90.295C88.012 90.2551 88.0923 90.1969 88.1579 90.124C88.2236 90.0511 88.2733 89.9652 88.3037 89.8719C88.3342 89.7786 88.3447 89.6799 88.3347 89.5822V86.0701H94.8452L98.3557 89.7665C98.4187 89.8357 98.496 89.8904 98.5821 89.927C98.6682 89.9635 98.7612 89.9811 98.8547 89.9783C98.9482 89.9756 99.0401 89.9527 99.1239 89.9112C99.2078 89.8697 99.2817 89.8105 99.3406 89.7378C99.4687 89.5831 99.5366 89.3872 99.5318 89.1863C99.5271 88.9854 99.45 88.793 99.3148 88.6446L96.8699 86.07H114.141C114.332 86.0504 114.509 85.9605 114.638 85.8176C114.767 85.6748 114.838 85.4893 114.838 85.2969C114.838 85.1046 114.767 84.919 114.638 84.7762C114.509 84.6334 114.332 84.5435 114.141 84.5238Z" fill="#464646"/>
<path d="M87.6658 85.8053C87.8084 85.8004 87.9435 85.7402 88.0426 85.6374C88.1418 85.5347 88.1972 85.3973 88.1972 85.2544C88.1972 85.1116 88.1418 84.9743 88.0426 84.8715C87.9435 84.7687 87.8084 84.7085 87.6658 84.7036C87.5231 84.7085 87.388 84.7687 87.2889 84.8715C87.1897 84.9743 87.1343 85.1116 87.1343 85.2544C87.1343 85.3973 87.1897 85.5347 87.2889 85.6374C87.388 85.7402 87.5231 85.8004 87.6658 85.8053Z" fill="#616161"/>
<path d="M87.6658 89.9453C87.8084 89.9403 87.9435 89.8801 88.0426 89.7774C88.1418 89.6746 88.1972 89.5373 88.1972 89.3944C88.1972 89.2515 88.1418 89.1142 88.0426 89.0115C87.9435 88.9087 87.8084 88.8485 87.6658 88.8436C87.5231 88.8485 87.388 88.9087 87.2889 89.0115C87.1897 89.1142 87.1343 89.2515 87.1343 89.3944C87.1343 89.5373 87.1897 89.6746 87.2889 89.7774C87.388 89.8801 87.5231 89.9403 87.6658 89.9453Z" fill="#616161"/>
<path d="M90.8013 81.3C90.9439 81.2951 91.079 81.2349 91.1782 81.1321C91.2773 81.0294 91.3327 80.8921 91.3327 80.7492C91.3327 80.6063 91.2773 80.469 91.1782 80.3662C91.079 80.2634 90.9439 80.2032 90.8013 80.1983C90.6587 80.2032 90.5236 80.2634 90.4244 80.3662C90.3253 80.469 90.2699 80.6063 90.2699 80.7492C90.2699 80.8921 90.3253 81.0294 90.4244 81.1321C90.5236 81.2349 90.6587 81.2951 90.8013 81.3Z" fill="#616161"/>
<path d="M87.6658 81.6769C87.8084 81.672 87.9435 81.6118 88.0426 81.509C88.1417 81.4062 88.1971 81.2689 88.1971 81.1261C88.1971 80.9832 88.1417 80.8459 88.0426 80.7431C87.9435 80.6404 87.8084 80.5802 87.6658 80.5752C87.5232 80.5802 87.3881 80.6404 87.2889 80.7431C87.1898 80.8459 87.1344 80.9832 87.1344 81.1261C87.1344 81.2689 87.1898 81.4062 87.2889 81.509C87.3881 81.6118 87.5232 81.672 87.6658 81.6769Z" fill="#616161"/>
<path d="M94.8149 85.8053C94.9575 85.8004 95.0926 85.7402 95.1917 85.6374C95.2909 85.5347 95.3463 85.3973 95.3463 85.2544C95.3463 85.1116 95.2909 84.9743 95.1917 84.8715C95.0926 84.7687 94.9575 84.7085 94.8149 84.7036C94.6723 84.7085 94.5371 84.7687 94.438 84.8715C94.3388 84.9743 94.2834 85.1116 94.2834 85.2544C94.2834 85.3973 94.3388 85.5347 94.438 85.6374C94.5371 85.7402 94.6723 85.8004 94.8149 85.8053Z" fill="#616161"/>
<path d="M98.7371 85.6591C98.8797 85.6542 99.0148 85.594 99.114 85.4912C99.2131 85.3885 99.2685 85.2512 99.2685 85.1083C99.2685 84.9654 99.2131 84.8281 99.114 84.7253C99.0148 84.6225 98.8797 84.5623 98.7371 84.5574C98.5945 84.5623 98.4594 84.6225 98.3603 84.7253C98.2611 84.8281 98.2057 84.9654 98.2057 85.1083C98.2057 85.2512 98.2611 85.3885 98.3603 85.4912C98.4594 85.594 98.5945 85.6542 98.7371 85.6591Z" fill="#616161"/>
<path d="M98.7371 89.6902C98.8797 89.6852 99.0148 89.6251 99.114 89.5223C99.2131 89.4195 99.2685 89.2822 99.2685 89.1393C99.2685 88.9964 99.2131 88.8591 99.114 88.7564C99.0148 88.6536 98.8797 88.5934 98.7371 88.5885C98.5945 88.5934 98.4594 88.6536 98.3603 88.7564C98.2611 88.8591 98.2057 88.9964 98.2057 89.1393C98.2057 89.2822 98.2611 89.4195 98.3603 89.5223C98.4594 89.6251 98.5945 89.6852 98.7371 89.6902Z" fill="#616161"/>
<path d="M83.8612 85.8053C84.0039 85.8004 84.139 85.7402 84.2381 85.6374C84.3373 85.5347 84.3927 85.3973 84.3927 85.2544C84.3927 85.1116 84.3373 84.9743 84.2381 84.8715C84.139 84.7687 84.0039 84.7085 83.8612 84.7036C83.7186 84.7085 83.5835 84.7687 83.4844 84.8715C83.3852 84.9743 83.3298 85.1116 83.3298 85.2544C83.3298 85.3973 83.3852 85.5347 83.4844 85.6374C83.5835 85.7402 83.7186 85.8004 83.8612 85.8053Z" fill="#616161"/>
<path d="M113.545 85.8053C113.687 85.8004 113.822 85.7402 113.922 85.6374C114.021 85.5347 114.076 85.3973 114.076 85.2544C114.076 85.1116 114.021 84.9743 113.922 84.8715C113.822 84.7687 113.687 84.7085 113.545 84.7036C113.402 84.7085 113.267 84.7687 113.168 84.8715C113.069 84.9743 113.013 85.1116 113.013 85.2544C113.013 85.3973 113.069 85.5347 113.168 85.6374C113.267 85.7402 113.402 85.8004 113.545 85.8053Z" fill="#616161"/>
<path d="M112.944 84.5101H84.5304C84.1205 84.5101 83.7273 84.347 83.4374 84.0567C83.1475 83.7664 82.9846 83.3726 82.9846 82.9621V62.1224H114.49V82.9621C114.49 83.3726 114.327 83.7664 114.037 84.0567C113.747 84.347 113.354 84.5101 112.944 84.5101Z" fill="#584432"/>
<path d="M102.35 68.5705C102.248 68.4147 102.099 68.4102 101.93 68.4051C101.911 68.4045 101.891 68.4039 101.872 68.4031C101.857 68.4024 101.84 68.4027 101.823 68.403C101.754 68.4041 101.674 68.4053 101.633 68.3476C101.586 68.2807 101.591 68.1514 101.594 68.0446C101.596 68.0109 101.597 67.9794 101.596 67.9529C101.589 67.7049 101.576 67.4414 101.48 67.3534C101.408 67.2873 101.192 67.2965 100.993 67.3049C100.928 67.3076 100.865 67.3103 100.81 67.3103H96.5714C96.4861 67.3103 96.3966 67.3033 96.3087 67.2965C96.1375 67.2832 95.9721 67.2704 95.8547 67.3103C95.6843 67.3685 95.6728 67.6746 95.6619 67.9627L95.6613 67.9782C95.6522 68.2161 95.5933 68.3997 95.3979 68.3812C95.1707 68.36 94.9446 68.3533 94.8419 68.559C94.7206 68.8024 94.7456 69.0571 94.7904 69.5134C94.7968 69.5785 94.8036 69.6478 94.8105 69.7218H102.415C102.419 69.6677 102.424 69.6144 102.429 69.5619C102.464 69.1514 102.495 68.7937 102.35 68.5705Z" fill="#785A3F"/>
<path fill-rule="evenodd" clip-rule="evenodd" d="M95.4027 70.1743C95.5215 71.7821 95.6389 73.3917 95.7564 75.0013C95.8202 75.8753 95.8841 76.7503 95.948 77.624H96.1907C96.2072 77.7608 96.2261 77.9296 96.2461 78.1076C96.2866 78.469 96.3313 78.8682 96.3689 79.1135H96.3958C96.6429 79.023 98.3515 78.2925 98.3523 75.3844C98.352 75.3761 98.3523 75.3678 98.3531 75.3596H97.931C97.9106 75.3594 97.8907 75.3525 97.8746 75.3401C97.8585 75.3277 97.8469 75.3104 97.8417 75.2909C97.8006 75.1893 97.7674 75.0846 97.7425 74.978C97.4942 75.1183 97.297 75.3325 97.179 75.5901C97.067 75.3262 97.0523 75.0319 97.1376 74.7585C97.2228 74.485 97.4025 74.2499 97.6453 74.0942C97.6484 73.2456 97.9661 72.4275 98.5381 71.7949L98.5471 71.7871C98.5637 71.7727 98.585 71.7647 98.6071 71.7645C98.6198 71.7646 98.6324 71.7673 98.6441 71.7725C98.6559 71.7778 98.6664 71.7854 98.675 71.7949C99.2538 72.4284 99.5698 73.2543 99.56 74.1079C99.8073 74.2593 99.9906 74.4943 100.076 74.7692C100.161 75.0441 100.143 75.3403 100.024 75.6028C99.9069 75.3448 99.7096 75.1304 99.4608 74.9907C99.4456 75.0941 99.4176 75.1953 99.3774 75.2919C99.3636 75.3331 99.3358 75.3596 99.308 75.3596H98.8578C98.8585 75.3645 98.859 75.3695 98.8593 75.3744L98.8595 75.3756V75.378C98.8597 75.3822 98.8597 75.3865 98.8595 75.3908C98.8657 78.3825 100.682 79.0615 100.835 79.1135H100.888C100.901 78.8778 100.945 78.5527 100.987 78.2357C101.016 78.0173 101.045 77.8027 101.063 77.624H101.309C101.387 76.5235 101.468 75.426 101.549 74.3286C101.652 72.9248 101.755 71.5201 101.854 70.1097H95.4184C95.3999 70.1133 95.4012 70.1436 95.4027 70.1743Z" fill="#785A3F"/>
<path d="M118.304 57.0981V59.9315C118.33 60.484 118.138 61.0247 117.768 61.4353C117.397 61.846 116.88 62.0933 116.328 62.1233H81.1437C80.5925 62.0932 80.0756 61.8457 79.706 61.4349C79.3365 61.0242 79.1444 60.4836 79.1718 59.9315V57.0981C79.1451 56.5465 79.3376 56.0068 79.7071 55.5968C80.0766 55.1868 80.5931 54.94 81.1437 54.9102H116.328C116.879 54.9398 117.396 55.1865 117.766 55.5964C118.137 56.0063 118.33 56.5461 118.304 57.0981Z" fill="#785A3F"/>
</svg>
