<svg width="111" height="242" viewBox="0 0 111 242" fill="none" xmlns="http://www.w3.org/2000/svg">
<path opacity="0.2" d="M69.7246 225.735C68.7193 220.475 64.9193 216.502 61.81 212.356C58.7047 208.207 56.054 202.651 57.906 197.652C59.7087 192.781 64.9713 190.732 69.714 190.102C74.458 189.459 79.5766 189.527 83.402 186.692C89.8833 181.927 89.0687 170.231 83.274 163.495C77.4807 156.789 68.482 154.816 60.2913 155.868C57.8913 156.157 55.0553 157.103 54.382 159.627C53.526 162.831 56.862 165.276 59.758 166.323C62.6553 167.355 66.206 168.76 66.6753 172.043C63.4207 173.316 60.1047 174.704 57.414 177.132C54.722 179.559 52.7153 183.229 52.9767 186.975C53.1833 189.926 54.742 192.824 53.978 195.69C52.398 201.563 43.2513 201.126 41.1193 206.852C39.654 210.751 42.4326 214.653 43.9206 218.464C45.378 222.187 45.618 226.357 46.4246 230.339C47.2326 234.32 48.83 238.444 52.0206 240.526C58.7313 244.907 71.258 233.832 69.7246 225.735Z" fill="#D7D5D5"/>
<path opacity="0.2" d="M33.5055 167.272C28.5588 167.777 23.3575 165.555 22.2681 160.696C21.0695 155.375 24.9615 148.485 22.9455 143.6C21.2948 139.62 16.6055 139.153 13.1708 137.66C8.16012 135.467 5.44278 130.487 2.96678 125.861C1.56011 123.228 0.164121 120.428 0.908121 116.495C2.01345 110.58 7.39212 104.839 12.5121 101.725C17.5241 98.6161 23.2228 96.8241 27.7161 98.8348C32.2121 100.836 34.7028 107.441 31.8508 112.999C30.0508 116.531 26.7308 118.935 24.0828 121.897C21.4295 124.86 19.2455 129.353 20.7481 132.163C22.8988 136.191 30.4881 133.273 32.9455 137.58C34.6588 140.584 32.7121 145.312 34.3294 148.407H34.3308C36.9201 153.335 47.0548 150.028 48.1881 156.625C49.3481 163.44 37.6641 166.723 33.5055 167.272Z" fill="#D7D5D5"/>
<path opacity="0.2" d="M96.5691 94.9295C101.058 97.6562 106.593 101.293 109.488 98.7868C112.22 96.4348 110.281 90.2748 108.241 85.2962C103.141 73.0655 97.0518 59.0588 86.1838 52.8642C80.8918 49.8988 75.0905 49.4308 69.4745 48.1442C63.8585 46.8082 57.8558 44.1762 55.8651 38.7775C53.5238 32.4375 57.6025 25.1375 61.5398 19.4588C65.7878 19.0642 70.3705 18.9028 73.5051 16.3522C76.6358 13.8268 76.9438 7.53882 73.0625 5.24149C70.2731 3.61882 66.9785 5.12148 64.8838 7.37215C62.7878 9.61749 61.3371 12.5135 59.0358 14.6575C55.0705 18.3415 49.3211 19.3762 44.1745 19.8615C39.0278 20.3148 33.9878 20.3535 29.0478 22.6522C21.7238 26.0175 15.2691 34.5135 12.0705 43.1348C9.89981 49.0495 9.68781 55.8122 13.8078 55.7402C15.4571 55.7295 17.4331 54.6415 19.2385 54.4375C23.6518 53.9708 26.0505 58.5255 30.2998 59.6175C34.5305 60.7228 39.8171 58.4735 44.6305 56.3748C49.4371 54.2588 54.5932 52.1882 59.4172 53.6188C64.2438 55.0522 67.9598 61.5415 65.1785 65.8122C63.2931 68.7308 59.4425 69.4762 56.0371 69.6468C52.6345 69.7975 49.0745 69.6562 45.9971 71.5375C42.9198 73.4242 40.8398 78.2335 42.9691 80.6042C39.7171 79.7428 35.9118 83.4482 35.2278 87.1948C34.5411 90.9388 36.3105 94.2468 38.8918 96.2375C47.9878 103.373 55.3131 92.7015 64.9718 89.8468C75.4025 86.8135 86.7211 88.8255 96.5691 94.9295Z" fill="#D7D5D5"/>
<path opacity="0.2" d="M51.7793 8.20542C53.5553 6.56808 54.4153 3.95875 53.8793 1.74275C50.3847 0.528088 46.5633 0.400099 42.8273 1.4201C40.0473 2.15343 36.6887 4.50942 36.606 7.40542C36.5527 9.19475 37.9207 10.3214 39.506 10.5601C41.0633 10.6428 50.0167 8.31608 51.7793 8.20542Z" fill="#D7D5D5"/>
</svg>
